# xmcd
#
# Track frame offsets: 
#        150
#        16812
#        31360
#        50322
#        68222
#        86654
#        104666
#        119058
#        134889
#        149106
#        165119
#
# Disc length: 2391 seconds
#
# Revision: 1
# Processed by: cddbd v1.5.2PL0 Copyright (c) Steve Scherf et al.
# Submitted via: ExactAudioCopy v0.99pb4
#
DISCID=a109550b
DTITLE=Coral - Deshojando Madrugadas
DYEAR=2005
DGENRE=Pop
TTITLE0=Maldito Corazón
TTITLE1=Deshojando Madrugadas
TTITLE2=El Mar De Tu Alma
TTITLE3=Dónde Irán Los Sueños
TTITLE4=Más Allá De Ti
TTITLE5=Amar Es Algo Más
TTITLE6=Un Segundo De Amor
TTITLE7=Después De Ti
TTITLE8=Es Cuestión De Fe
TTITLE9=Nueva Piel
TTITLE10=Un Secondo Di Amore
EXTD=
EXTT0=
EXTT1=
EXTT2=
EXTT3=
EXTT4=
EXTT5=
EXTT6=
EXTT7=
EXTT8=
EXTT9=
EXTT10=
PLAYORDER=
